<mxfile host="app.diagrams.net" agent="Mozilla/5.0 (X11; Linux x86_64) AppleWebKit/537.36 (KHTML, like Gecko) Chrome/134.0.0.0 Safari/537.36" version="26.0.16">
  <diagram name="Page-1" id="_yEbjHSp3WYS6RL_RvbN">
    <mxGraphModel dx="943" dy="1624" grid="1" gridSize="10" guides="1" tooltips="1" connect="1" arrows="1" fold="1" page="1" pageScale="1" pageWidth="850" pageHeight="1100" math="0" shadow="0">
      <root>
        <mxCell id="0" />
        <mxCell id="1" parent="0" />
        <mxCell id="C1queuc8e2T4fZlDx_z4-20" style="edgeStyle=none;shape=link;rounded=0;orthogonalLoop=1;jettySize=auto;html=1;exitX=0.25;exitY=1;exitDx=0;exitDy=0;entryX=0.5;entryY=0;entryDx=0;entryDy=0;" edge="1" parent="1" source="C1queuc8e2T4fZlDx_z4-2" target="C1queuc8e2T4fZlDx_z4-9">
          <mxGeometry relative="1" as="geometry" />
        </mxCell>
        <mxCell id="C1queuc8e2T4fZlDx_z4-22" value="N" style="edgeLabel;html=1;align=center;verticalAlign=middle;resizable=0;points=[];" vertex="1" connectable="0" parent="C1queuc8e2T4fZlDx_z4-20">
          <mxGeometry x="-0.3905" y="1" relative="1" as="geometry">
            <mxPoint x="-29" as="offset" />
          </mxGeometry>
        </mxCell>
        <mxCell id="C1queuc8e2T4fZlDx_z4-52" value="N" style="edgeStyle=none;shape=link;rounded=0;orthogonalLoop=1;jettySize=auto;html=1;exitX=1;exitY=0.5;exitDx=0;exitDy=0;entryX=0;entryY=0.5;entryDx=0;entryDy=0;" edge="1" parent="1" source="C1queuc8e2T4fZlDx_z4-2" target="C1queuc8e2T4fZlDx_z4-45">
          <mxGeometry x="-0.3333" y="15" relative="1" as="geometry">
            <mxPoint as="offset" />
          </mxGeometry>
        </mxCell>
        <mxCell id="C1queuc8e2T4fZlDx_z4-2" value="WorkShop" style="rounded=0;whiteSpace=wrap;html=1;" vertex="1" parent="1">
          <mxGeometry x="350" y="40" width="100" height="50" as="geometry" />
        </mxCell>
        <mxCell id="C1queuc8e2T4fZlDx_z4-3" value="Nome" style="ellipse;whiteSpace=wrap;html=1;" vertex="1" parent="1">
          <mxGeometry x="290" y="-20" width="80" height="40" as="geometry" />
        </mxCell>
        <mxCell id="C1queuc8e2T4fZlDx_z4-4" value="&lt;u&gt;Data&lt;/u&gt;" style="ellipse;whiteSpace=wrap;html=1;" vertex="1" parent="1">
          <mxGeometry x="420" y="-20" width="80" height="40" as="geometry" />
        </mxCell>
        <mxCell id="C1queuc8e2T4fZlDx_z4-5" value="" style="endArrow=none;html=1;rounded=0;exitX=1;exitY=1;exitDx=0;exitDy=0;entryX=0.5;entryY=0;entryDx=0;entryDy=0;" edge="1" parent="1" source="C1queuc8e2T4fZlDx_z4-3" target="C1queuc8e2T4fZlDx_z4-2">
          <mxGeometry width="50" height="50" relative="1" as="geometry">
            <mxPoint x="400" y="180" as="sourcePoint" />
            <mxPoint x="450" y="130" as="targetPoint" />
          </mxGeometry>
        </mxCell>
        <mxCell id="C1queuc8e2T4fZlDx_z4-6" value="" style="endArrow=none;html=1;rounded=0;entryX=0;entryY=1;entryDx=0;entryDy=0;exitX=0.5;exitY=0;exitDx=0;exitDy=0;" edge="1" parent="1" source="C1queuc8e2T4fZlDx_z4-2" target="C1queuc8e2T4fZlDx_z4-4">
          <mxGeometry width="50" height="50" relative="1" as="geometry">
            <mxPoint x="410" y="190" as="sourcePoint" />
            <mxPoint x="460" y="140" as="targetPoint" />
          </mxGeometry>
        </mxCell>
        <mxCell id="C1queuc8e2T4fZlDx_z4-8" value="Participante" style="rounded=0;whiteSpace=wrap;html=1;" vertex="1" parent="1">
          <mxGeometry x="275" y="190" width="90" height="50" as="geometry" />
        </mxCell>
        <mxCell id="C1queuc8e2T4fZlDx_z4-9" value="Participa" style="rhombus;whiteSpace=wrap;html=1;" vertex="1" parent="1">
          <mxGeometry x="280" y="120" width="80" height="50" as="geometry" />
        </mxCell>
        <mxCell id="C1queuc8e2T4fZlDx_z4-11" value="" style="endArrow=none;html=1;rounded=0;exitX=0.5;exitY=1;exitDx=0;exitDy=0;entryX=0.5;entryY=0;entryDx=0;entryDy=0;" edge="1" parent="1" source="C1queuc8e2T4fZlDx_z4-9" target="C1queuc8e2T4fZlDx_z4-8">
          <mxGeometry width="50" height="50" relative="1" as="geometry">
            <mxPoint x="550" y="180" as="sourcePoint" />
            <mxPoint x="592" y="206" as="targetPoint" />
          </mxGeometry>
        </mxCell>
        <mxCell id="C1queuc8e2T4fZlDx_z4-21" value="N" style="edgeLabel;html=1;align=center;verticalAlign=middle;resizable=0;points=[];" vertex="1" connectable="0" parent="C1queuc8e2T4fZlDx_z4-11">
          <mxGeometry x="-0.2571" relative="1" as="geometry">
            <mxPoint x="10" as="offset" />
          </mxGeometry>
        </mxCell>
        <mxCell id="C1queuc8e2T4fZlDx_z4-12" value="Nome" style="ellipse;whiteSpace=wrap;html=1;" vertex="1" parent="1">
          <mxGeometry x="260" y="350" width="80" height="40" as="geometry" />
        </mxCell>
        <mxCell id="C1queuc8e2T4fZlDx_z4-13" value="&lt;u&gt;Email&lt;/u&gt;" style="ellipse;whiteSpace=wrap;html=1;" vertex="1" parent="1">
          <mxGeometry x="300" y="400" width="80" height="40" as="geometry" />
        </mxCell>
        <mxCell id="C1queuc8e2T4fZlDx_z4-14" value="Morada" style="ellipse;whiteSpace=wrap;html=1;" vertex="1" parent="1">
          <mxGeometry x="470" y="350" width="80" height="40" as="geometry" />
        </mxCell>
        <mxCell id="C1queuc8e2T4fZlDx_z4-15" value="TelemÃ³vel" style="ellipse;whiteSpace=wrap;html=1;" vertex="1" parent="1">
          <mxGeometry x="420" y="400" width="80" height="40" as="geometry" />
        </mxCell>
        <mxCell id="C1queuc8e2T4fZlDx_z4-24" value="Formador" style="rounded=0;whiteSpace=wrap;html=1;" vertex="1" parent="1">
          <mxGeometry x="425" y="190" width="90" height="50" as="geometry" />
        </mxCell>
        <mxCell id="C1queuc8e2T4fZlDx_z4-26" value="Forma" style="rhombus;whiteSpace=wrap;html=1;" vertex="1" parent="1">
          <mxGeometry x="430" y="120" width="80" height="50" as="geometry" />
        </mxCell>
        <mxCell id="C1queuc8e2T4fZlDx_z4-27" value="N" style="endArrow=none;html=1;rounded=0;exitX=0.5;exitY=1;exitDx=0;exitDy=0;entryX=0.5;entryY=0;entryDx=0;entryDy=0;" edge="1" parent="1" source="C1queuc8e2T4fZlDx_z4-26" target="C1queuc8e2T4fZlDx_z4-24">
          <mxGeometry y="10" width="50" height="50" relative="1" as="geometry">
            <mxPoint x="330" y="180" as="sourcePoint" />
            <mxPoint x="330" y="200" as="targetPoint" />
            <Array as="points" />
            <mxPoint as="offset" />
          </mxGeometry>
        </mxCell>
        <mxCell id="C1queuc8e2T4fZlDx_z4-30" style="edgeStyle=none;shape=link;rounded=0;orthogonalLoop=1;jettySize=auto;html=1;exitX=0.75;exitY=1;exitDx=0;exitDy=0;entryX=0.5;entryY=0;entryDx=0;entryDy=0;" edge="1" parent="1" source="C1queuc8e2T4fZlDx_z4-2" target="C1queuc8e2T4fZlDx_z4-26">
          <mxGeometry relative="1" as="geometry">
            <mxPoint x="410" y="100" as="sourcePoint" />
            <mxPoint x="330" y="130" as="targetPoint" />
          </mxGeometry>
        </mxCell>
        <mxCell id="C1queuc8e2T4fZlDx_z4-31" value="N" style="edgeLabel;html=1;align=center;verticalAlign=middle;resizable=0;points=[];" vertex="1" connectable="0" parent="C1queuc8e2T4fZlDx_z4-30">
          <mxGeometry x="-0.3905" y="1" relative="1" as="geometry">
            <mxPoint x="21" as="offset" />
          </mxGeometry>
        </mxCell>
        <mxCell id="C1queuc8e2T4fZlDx_z4-32" value="Pessoa" style="rounded=0;whiteSpace=wrap;html=1;" vertex="1" parent="1">
          <mxGeometry x="355" y="300" width="90" height="50" as="geometry" />
        </mxCell>
        <mxCell id="C1queuc8e2T4fZlDx_z4-33" value="" style="endArrow=none;html=1;rounded=0;exitX=1;exitY=0;exitDx=0;exitDy=0;entryX=0;entryY=1;entryDx=0;entryDy=0;" edge="1" parent="1" source="C1queuc8e2T4fZlDx_z4-12" target="C1queuc8e2T4fZlDx_z4-32">
          <mxGeometry width="50" height="50" relative="1" as="geometry">
            <mxPoint x="410" y="320" as="sourcePoint" />
            <mxPoint x="460" y="270" as="targetPoint" />
          </mxGeometry>
        </mxCell>
        <mxCell id="C1queuc8e2T4fZlDx_z4-34" value="" style="endArrow=none;html=1;rounded=0;entryX=0.5;entryY=0;entryDx=0;entryDy=0;exitX=0.25;exitY=1;exitDx=0;exitDy=0;" edge="1" parent="1" source="C1queuc8e2T4fZlDx_z4-32" target="C1queuc8e2T4fZlDx_z4-13">
          <mxGeometry width="50" height="50" relative="1" as="geometry">
            <mxPoint x="420" y="330" as="sourcePoint" />
            <mxPoint x="470" y="280" as="targetPoint" />
          </mxGeometry>
        </mxCell>
        <mxCell id="C1queuc8e2T4fZlDx_z4-35" value="" style="endArrow=none;html=1;rounded=0;entryX=0.5;entryY=0;entryDx=0;entryDy=0;exitX=0.75;exitY=1;exitDx=0;exitDy=0;shape=link;" edge="1" parent="1" source="C1queuc8e2T4fZlDx_z4-32" target="C1queuc8e2T4fZlDx_z4-15">
          <mxGeometry width="50" height="50" relative="1" as="geometry">
            <mxPoint x="430" y="340" as="sourcePoint" />
            <mxPoint x="480" y="290" as="targetPoint" />
          </mxGeometry>
        </mxCell>
        <mxCell id="C1queuc8e2T4fZlDx_z4-36" value="" style="endArrow=none;html=1;rounded=0;entryX=0;entryY=0;entryDx=0;entryDy=0;exitX=1;exitY=1;exitDx=0;exitDy=0;" edge="1" parent="1" source="C1queuc8e2T4fZlDx_z4-32" target="C1queuc8e2T4fZlDx_z4-14">
          <mxGeometry width="50" height="50" relative="1" as="geometry">
            <mxPoint x="440" y="350" as="sourcePoint" />
            <mxPoint x="490" y="300" as="targetPoint" />
          </mxGeometry>
        </mxCell>
        <mxCell id="C1queuc8e2T4fZlDx_z4-37" value="" style="triangle;whiteSpace=wrap;html=1;direction=south;" vertex="1" parent="1">
          <mxGeometry x="380" y="280" width="40" height="20" as="geometry" />
        </mxCell>
        <mxCell id="C1queuc8e2T4fZlDx_z4-38" value="" style="endArrow=none;html=1;rounded=0;entryX=0.5;entryY=1;entryDx=0;entryDy=0;edgeStyle=orthogonalEdgeStyle;exitX=0;exitY=0.5;exitDx=0;exitDy=0;" edge="1" parent="1" source="C1queuc8e2T4fZlDx_z4-37" target="C1queuc8e2T4fZlDx_z4-24">
          <mxGeometry width="50" height="50" relative="1" as="geometry">
            <mxPoint x="470" y="260" as="sourcePoint" />
            <mxPoint x="470" y="250" as="targetPoint" />
          </mxGeometry>
        </mxCell>
        <mxCell id="C1queuc8e2T4fZlDx_z4-44" value="{MandatÃ³rio, E}" style="edgeLabel;html=1;align=center;verticalAlign=middle;resizable=0;points=[];" vertex="1" connectable="0" parent="C1queuc8e2T4fZlDx_z4-38">
          <mxGeometry x="0.1273" y="-1" relative="1" as="geometry">
            <mxPoint x="3" y="9" as="offset" />
          </mxGeometry>
        </mxCell>
        <mxCell id="C1queuc8e2T4fZlDx_z4-39" value="" style="endArrow=none;html=1;rounded=0;entryX=0.5;entryY=1;entryDx=0;entryDy=0;edgeStyle=orthogonalEdgeStyle;exitX=0;exitY=0.5;exitDx=0;exitDy=0;" edge="1" parent="1" source="C1queuc8e2T4fZlDx_z4-37" target="C1queuc8e2T4fZlDx_z4-8">
          <mxGeometry width="50" height="50" relative="1" as="geometry">
            <mxPoint x="410" y="290" as="sourcePoint" />
            <mxPoint x="480" y="250" as="targetPoint" />
          </mxGeometry>
        </mxCell>
        <mxCell id="C1queuc8e2T4fZlDx_z4-40" value="&lt;u&gt;Id&lt;/u&gt;" style="ellipse;whiteSpace=wrap;html=1;" vertex="1" parent="1">
          <mxGeometry x="540" y="195" width="80" height="40" as="geometry" />
        </mxCell>
        <mxCell id="C1queuc8e2T4fZlDx_z4-41" value="&lt;u&gt;Id&lt;/u&gt;" style="ellipse;whiteSpace=wrap;html=1;" vertex="1" parent="1">
          <mxGeometry x="170" y="195" width="80" height="40" as="geometry" />
        </mxCell>
        <mxCell id="C1queuc8e2T4fZlDx_z4-42" value="" style="endArrow=none;html=1;rounded=0;entryX=0;entryY=0.5;entryDx=0;entryDy=0;exitX=1;exitY=0.5;exitDx=0;exitDy=0;" edge="1" parent="1" source="C1queuc8e2T4fZlDx_z4-41" target="C1queuc8e2T4fZlDx_z4-8">
          <mxGeometry width="50" height="50" relative="1" as="geometry">
            <mxPoint x="410" y="320" as="sourcePoint" />
            <mxPoint x="460" y="270" as="targetPoint" />
          </mxGeometry>
        </mxCell>
        <mxCell id="C1queuc8e2T4fZlDx_z4-43" value="" style="endArrow=none;html=1;rounded=0;entryX=0;entryY=0.5;entryDx=0;entryDy=0;exitX=1;exitY=0.5;exitDx=0;exitDy=0;" edge="1" parent="1" source="C1queuc8e2T4fZlDx_z4-24" target="C1queuc8e2T4fZlDx_z4-40">
          <mxGeometry width="50" height="50" relative="1" as="geometry">
            <mxPoint x="420" y="330" as="sourcePoint" />
            <mxPoint x="470" y="280" as="targetPoint" />
          </mxGeometry>
        </mxCell>
        <mxCell id="C1queuc8e2T4fZlDx_z4-45" value="Decorre" style="rhombus;whiteSpace=wrap;html=1;" vertex="1" parent="1">
          <mxGeometry x="480" y="40" width="80" height="50" as="geometry" />
        </mxCell>
        <mxCell id="C1queuc8e2T4fZlDx_z4-46" value="Local" style="rounded=0;whiteSpace=wrap;html=1;" vertex="1" parent="1">
          <mxGeometry x="590" y="40" width="100" height="50" as="geometry" />
        </mxCell>
        <mxCell id="C1queuc8e2T4fZlDx_z4-47" value="Morada" style="ellipse;whiteSpace=wrap;html=1;" vertex="1" parent="1">
          <mxGeometry x="570" y="-20" width="80" height="40" as="geometry" />
        </mxCell>
        <mxCell id="C1queuc8e2T4fZlDx_z4-48" value="&lt;u&gt;CÃ³digo Postal&lt;/u&gt;" style="ellipse;whiteSpace=wrap;html=1;" vertex="1" parent="1">
          <mxGeometry x="650" y="-20" width="80" height="40" as="geometry" />
        </mxCell>
        <mxCell id="C1queuc8e2T4fZlDx_z4-49" value="" style="endArrow=none;html=1;rounded=0;entryX=0.5;entryY=1;entryDx=0;entryDy=0;exitX=0.75;exitY=0;exitDx=0;exitDy=0;" edge="1" parent="1" source="C1queuc8e2T4fZlDx_z4-46" target="C1queuc8e2T4fZlDx_z4-48">
          <mxGeometry width="50" height="50" relative="1" as="geometry">
            <mxPoint x="720" y="126" as="sourcePoint" />
            <mxPoint x="752" y="100" as="targetPoint" />
          </mxGeometry>
        </mxCell>
        <mxCell id="C1queuc8e2T4fZlDx_z4-50" value="" style="endArrow=none;html=1;rounded=0;entryX=0.5;entryY=1;entryDx=0;entryDy=0;exitX=0.401;exitY=-0.025;exitDx=0;exitDy=0;exitPerimeter=0;" edge="1" parent="1" source="C1queuc8e2T4fZlDx_z4-46" target="C1queuc8e2T4fZlDx_z4-47">
          <mxGeometry width="50" height="50" relative="1" as="geometry">
            <mxPoint x="675" y="50" as="sourcePoint" />
            <mxPoint x="730" y="30" as="targetPoint" />
          </mxGeometry>
        </mxCell>
        <mxCell id="C1queuc8e2T4fZlDx_z4-51" value="1" style="endArrow=none;html=1;rounded=0;entryX=0;entryY=0.5;entryDx=0;entryDy=0;exitX=1;exitY=0.5;exitDx=0;exitDy=0;" edge="1" parent="1" source="C1queuc8e2T4fZlDx_z4-45" target="C1queuc8e2T4fZlDx_z4-46">
          <mxGeometry x="-0.3333" y="15" width="50" height="50" relative="1" as="geometry">
            <mxPoint x="555" y="160" as="sourcePoint" />
            <mxPoint x="605" y="110" as="targetPoint" />
            <mxPoint as="offset" />
          </mxGeometry>
        </mxCell>
      </root>
    </mxGraphModel>
  </diagram>
</mxfile>
